<svg xmlns="http://www.w3.org/2000/svg" viewBox="0 0 512 512"><path d="M256 2.6C116 2.6 2.6 116 2.6 256S116 509.4 256 509.4 509.4 396 509.4 256 396 2.6 256 2.6zm86.438 150.037c4.322 0 8.645 1.656 11.957 4.968 6.624 6.625 6.624 17.29 0 23.915L279.915 256l74.48 74.48c6.624 6.624 6.624 17.29 0 23.915-6.624 6.624-17.29 6.624-23.915 0L256 279.915l-74.48 74.48c-6.625 6.624-17.29 6.624-23.915 0-6.624-6.624-6.624-17.29 0-23.915l74.48-74.48-74.48-74.48c-6.624-6.625-6.624-17.29 0-23.915 3.312-3.312 7.635-4.966 11.958-4.966 4.322 0 8.645 1.653 11.957 4.965l74.48 74.48 74.48-74.48c3.312-3.312 7.635-4.968 11.957-4.968z" fill="#ccc"/></svg>
