<svg xmlns="http://www.w3.org/2000/svg" viewBox="0 0 512 512"><path d="M256 2.6C116 2.6 2.6 116 2.6 256S116 509.4 256 509.4 509.4 396 509.4 256 396 2.6 256 2.6zM146.342 151.83h219.316c11.196 0 20.21 9.013 20.21 20.21v4.63c0 11.196-9.014 20.21-20.21 20.21H146.342c-11.196 0-20.21-9.014-20.21-20.21v-4.63c0-11.197 9.014-20.21 20.21-20.21zm0 81.645h219.316c11.196 0 20.21 9.015 20.21 20.21v4.63c0 11.195-9.014 20.21-20.21 20.21H146.342c-11.196 0-20.21-9.015-20.21-20.21v-4.63c0-11.195 9.014-20.21 20.21-20.21zm0 81.646h219.316c11.196 0 20.21 9.015 20.21 20.21v4.63c0 11.198-9.014 20.21-20.21 20.21H146.342c-11.196 0-20.21-9.012-20.21-20.21v-4.63c0-11.195 9.014-20.21 20.21-20.21z" fill="#ccc"/></svg>