<svg xmlns="http://www.w3.org/2000/svg" width="150" height="150" viewBox="0 0 39.6875 39.6875"><g transform="translate(0 -257.313)"><circle cx="19.844" cy="277.156" r="19.419" fill="#aaf"/><g style="line-height:7.84370804px" font-size="12.55" font-family="Schoolbell" letter-spacing="0" word-spacing="0" fill="#fff" stroke-width=".314"><path d="M6.018 272.602l-.05-.05q-.01-.023-.036-.048-.147-.147-.147-.306.013-.172.098-.294.098-.135.245-.197.16-.073.32-.012.195-.024.367.098.184.11.184.368.624.75 1.175 1.472.552.723 1.005 1.532.21.367.38.76.184.38.343.772 0-.503.037-.993.05-.49.11-1.005.135-1.054.258-2.096.135-1.054.147-2.132 0-.233.147-.344.16-.122.343-.122.184 0 .33.122.16.11.16.344-.012 1.103-.16 2.18l-.27 2.146q-.06.55-.097 1.09-.037.528-.024 1.08l.024 1.04q.025.516 0 1.043-.012.183-.122.305-.098.11-.245.147-.146.037-.294-.012-.147-.05-.245-.196-.28-.43-.477-.895-.196-.48-.367-.945-.172-.453-.356-.87-.184-.43-.416-.845-.307-.552-.662-1.054-.343-.503-.736-.98v.992q0 .478.025.98.025.883.123 1.753.1.86.21 1.73.023.207-.148.354-.16.135-.33.135-.222 0-.344-.136-.122-.147-.146-.355-.123-.87-.22-1.73-.1-.87-.124-1.752-.024-.772-.024-1.532.012-.772.012-1.544zM12.318 272.406q-.245-.074-.294-.32-.062-.17.036-.366.098-.21.307-.233 1.19-.184 2.377-.196 1.2-.024 2.402-.036.233 0 .356.147.122.148.122.332 0 .184-.122.343-.123.147-.356.147-.955.025-1.924.025-.968 0-1.936.098.024.49.06.98l.075.968q.932-.05 1.85-.122.933-.073 1.864-.024.233.013.356.172.122.16.122.343 0 .185-.122.332-.123.147-.356.135-.92-.05-1.826.024-.895.075-1.814.124.074.882.135 1.765.073.87.097 1.75.43-.097.87-.183.44-.098.883-.147.44-.06.882-.06.44 0 .883.073.196.036.294.232.097.196.048.368-.062.208-.233.294-.172.086-.38.05-.392-.074-.797-.05-.404.025-.796.086-.454.074-.907.172-.442.098-.883.208-.208.05-.392-.074-.17-.025-.306-.135-.135-.11-.135-.33-.026-1.043-.1-2.06-.06-1.017-.146-2.047-.135-.135-.16-.33-.012-.21.11-.356-.097-1.042-.146-2.096zM20.676 279.44q-.11.16-.257.21-.148.048-.295.01-.135-.048-.246-.158-.11-.122-.123-.306-.025-.172-.025-.22-.024-.1-.036-.197-.013-.1-.037-.197l-.1-.49q-.036-.245-.097-.49-.135-.626-.282-1.226-.146-.613-.28-1.226-.136-.55-.27-1.102-.135-.563-.27-1.115-.05-.184-.086-.368-.037-.183-.086-.367l-.05-.21q-.023-.12-.01-.22.023-.208.146-.342.135-.148.343-.148.184 0 .343.148.172.134.147.343.013.072.013.12.012.05.036.112.037.196.074.38.05.183.086.367.135.575.27 1.14.146.55.28 1.114l.27 1.214q.148.6.283 1.213.023.123.048.234l.05.22q.403-.625.77-1.262.38-.65.712-1.324.404-.82.723-1.703.318-.883.38-1.802.012-.196.147-.318.135-.123.294-.147.16-.025.306.06.16.074.21.283.207.785.366 1.594.172.81.344 1.605.183.796.404 1.58.233.785.576 1.532.355-.465.625-.968.27-.515.44-1.09.295-.956.393-1.937.11-.993.21-1.985.023-.197.146-.344.135-.147.343-.147.184 0 .343.148.172.135.147.344l-.22 2.17q-.11 1.065-.442 2.107-.28.845-.723 1.555-.43.71-1.017 1.373-.16.172-.417.147-.245-.037-.355-.245-.33-.588-.576-1.213-.245-.625-.43-1.263-.183-.637-.33-1.287-.147-.66-.282-1.31-.318.845-.723 1.666-.478.98-1.042 1.912-.563.92-1.164 1.826zM31.29 270.886q.38.086.796.233.417.146.785.38.368.232.638.563.27.318.343.76.062.294.05.6-.012.307-.208.564-.172.233-.417.38-.233.135-.515.22-.257.074-.514.123-.258.037-.515.086l-.27.05q-.12.023-.256.06-.06.025-.123.037-.048 0-.11.024-.158.074-.232.123-.073.074-.086.098 0 .012-.012.025-.012.122 0 .16 0 .11.06.256.063.134.1.244.048.135.097.258.05.11.086.245.098.257.147.515.05.257.062.54 0 .244-.147.367-.148.11-.33.11-.185 0-.345-.124-.147-.122-.16-.355 0-.293-.097-.563-.086-.282-.196-.564-.074-.196-.135-.392-.06-.195-.098-.39-.024-.21-.012-.406.024-.208.122-.404.135-.245.356-.392.233-.16.49-.258.245-.085.49-.134.258-.062.515-.098.257-.037.503-.086.245-.05.49-.147.098-.037.147-.074.073-.06.11-.097.025-.073.012-.11v-.074-.062q.013-.037.025 0-.025-.086-.037-.16-.012-.073-.037-.146-.036-.098-.134-.196-.086-.11-.184-.21-.282-.244-.674-.38-.393-.146-.76-.244-.49-.11-.993-.16-.49-.048-.993-.06-.245-.013-.367-.16-.11-.16-.11-.343 0-.185.11-.332.122-.147.367-.147.552.026 1.09.075.54.05 1.08.17zm-.123 8.04q.172.098.245.294.086.196.025.368-.05.196-.233.306-.135.147-.343.135-.208 0-.342-.136-.184-.147-.233-.245-.098-.172-.062-.344.05-.172.196-.294.024-.025.06-.05.038-.036.074-.06.11-.05.123-.05.024 0 .147-.024.098 0 .147.025.1.012.197.073z" style="-inkscape-font-specification:Schoolbell"/></g><g style="line-height:3.5784657px" font-size="5.726" font-family="Aller Display" letter-spacing="0" word-spacing="0" fill="#fff" stroke-width=".143"><path d="M6.042 281.29q.114-.016.263-.027.15-.017.303-.03.155-.01.298-.016.15-.006.258-.006.716 0 1.07.207.356.2.356.63 0 .217-.104.372-.097.148-.27.257.242.086.396.246.155.16.155.452 0 .527-.39.733-.39.2-1.15.2-.2 0-.527-.017-.32-.01-.658-.056zm.956 2.314q.017 0 .09.006.076.006.202.006.24 0 .343-.08.103-.08.103-.223 0-.057-.022-.11-.018-.056-.07-.096-.05-.04-.142-.063-.092-.03-.24-.03h-.264zm.28-1.19q.218 0 .292-.092.075-.097.075-.2 0-.098-.08-.178-.075-.086-.28-.086-.064 0-.15.006-.08 0-.137.006v.544zM10.092 283.066q.063.235.218.332.16.098.418.098.166 0 .372-.04t.407-.12q.08.148.137.354.063.206.07.43-.51.19-1.043.19-.41 0-.71-.116-.29-.114-.48-.315-.183-.207-.275-.487-.086-.28-.086-.613 0-.326.09-.613.092-.286.276-.498.183-.213.458-.333.274-.126.64-.126.304 0 .54.104.24.103.406.286.166.178.252.436.09.25.09.55 0 .154-.016.28-.012.12-.023.2zm.905-.658q-.01-.2-.126-.332-.108-.138-.32-.138-.183 0-.314.115-.132.114-.155.355zM13.93 283.484v-.84q.142-.03.25-.042.116-.01.22-.01.2 0 .474.05v1.455q-.166.063-.464.137-.298.075-.693.075-.412 0-.704-.122-.286-.126-.47-.337-.183-.21-.268-.498-.08-.286-.08-.612 0-.315.097-.596.103-.28.297-.486.2-.206.492-.327.292-.12.675-.12.2 0 .44.047.242.046.528.16-.006.098-.023.183-.017.086-.046.178-.023.086-.063.19-.034.096-.085.222-.195-.08-.36-.114-.167-.04-.287-.04-.188 0-.32.057t-.212.154q-.08.098-.12.23-.035.125-.035.263 0 .383.166.567.166.177.486.177zM15.402 281.28q.126-.03.246-.04.126-.012.24-.012.11 0 .235.012.126.01.246.04v2.954q-.15.023-.27.035-.12.01-.217.01-.098 0-.218-.01-.12-.013-.263-.036zM17.012 281.423q.2-.07.487-.132.285-.067.714-.067.252 0 .504.045.252.04.452.178.207.137.332.395.132.26.132.682v1.712q-.15.03-.27.035-.12.01-.21.01-.098 0-.218-.01-.12-.007-.27-.036v-1.61q0-.302-.114-.434-.114-.13-.35-.13-.062 0-.137.01-.068.01-.085.023v2.14q-.15.03-.27.036-.12.01-.21.01-.1 0-.22-.01-.12-.007-.268-.036zM21.507 281.28q.126-.03.247-.04.125-.012.24-.012.11 0 .235.012.125.01.245.04v1.008h.847v-1.008q.126-.03.247-.04.124-.012.24-.012.108 0 .234.012.126.01.246.04v2.954q-.15.023-.27.035-.12.01-.217.01t-.217-.01q-.12-.013-.264-.036v-1.088h-.847v1.088q-.15.023-.27.035-.12.01-.217.01t-.217-.01q-.12-.013-.263-.036zM25.76 283.066q.062.235.217.332.16.098.418.098.166 0 .372-.04t.407-.12q.08.148.137.354.064.206.07.43-.51.19-1.042.19-.413 0-.71-.116-.292-.114-.48-.315-.184-.207-.276-.487-.086-.28-.086-.613 0-.326.092-.613.09-.286.275-.498.183-.213.458-.333.275-.126.642-.126.303 0 .538.104.24.103.407.286.166.178.25.436.093.25.093.55 0 .154-.017.28-.012.12-.023.2zm.904-.658q-.01-.2-.126-.332-.11-.138-.32-.138-.184 0-.315.115-.132.114-.155.355zM28.004 281.29q.27-.033.556-.056.292-.023.55-.023.692 0 1.036.265.35.257.35.727 0 .177-.04.31-.04.13-.098.228-.058.092-.12.15l-.104.09.653 1.25q-.114.02-.258.033-.138.01-.27.01-.16 0-.31-.01-.148-.012-.245-.034l-.636-1.353.08-.045q.2-.115.274-.24.075-.133.075-.282 0-.148-.093-.24-.086-.097-.28-.097-.11 0-.166.01v2.25q-.148.03-.268.036-.12.01-.212.01-.098 0-.212-.01-.115-.007-.264-.036zM31.865 283.066q.063.235.218.332.16.098.418.098.167 0 .373-.04t.406-.12q.08.148.137.354.063.206.07.43-.51.19-1.044.19-.412 0-.71-.116-.29-.114-.48-.315-.184-.207-.275-.487-.086-.28-.086-.613 0-.326.09-.613.093-.286.276-.498.184-.213.458-.333.275-.126.642-.126.303 0 .538.104.24.103.406.286.166.178.252.436.092.25.092.55 0 .154-.017.28-.013.12-.024.2zm.905-.658q-.012-.2-.126-.332-.11-.138-.32-.138-.184 0-.316.115-.13.114-.154.355z" style="-inkscape-font-specification:'Aller Display'"/></g><circle r="17.584" cy="277.156" cx="19.844" fill="none" stroke="#fff" stroke-width=".308" stroke-linecap="round" stroke-linejoin="round"/></g></svg>