<svg xmlns="http://www.w3.org/2000/svg" viewBox="0 0 512 512"><path d="M239.374 343.02a16.11 16.11 0 0 1-16.11 16.11 16.11 16.11 0 0 1-16.108-16.11 16.11 16.11 0 0 1 16.11-16.108 16.11 16.11 0 0 1 16.108 16.108zm120-88a16.11 16.11 0 0 1-16.11 16.11 16.11 16.11 0 0 1-16.108-16.11 16.11 16.11 0 0 1 16.11-16.108 16.11 16.11 0 0 1 16.108 16.108zm-180-88a16.11 16.11 0 0 1-16.11 16.11 16.11 16.11 0 0 1-16.108-16.11 16.11 16.11 0 0 1 16.11-16.108 16.11 16.11 0 0 1 16.108 16.108zM256 2.6C116 2.6 2.6 116 2.6 256S116 509.4 256 509.4 509.4 396 509.4 256 396 2.6 256 2.6zm-92.734 135.25a29.17 29.17 0 0 1 26.463 16.98h209.264c6.648 0 12 5.352 12 12v.38c0 6.65-5.352 12-12 12H189.73a29.17 29.17 0 0 1-26.464 16.98 29.17 29.17 0 0 1-26.463-16.98h-23.797c-6.648 0-12-5.35-12-12v-.38c0-6.648 5.352-12 12-12H136.8a29.17 29.17 0 0 1 26.466-16.98zm180 88a29.17 29.17 0 0 1 26.463 16.98h29.264c6.648 0 12 5.352 12 12v.38c0 6.65-5.352 12-12 12H369.73a29.17 29.17 0 0 1-26.464 16.98 29.17 29.17 0 0 1-26.463-16.98H113.006c-6.648 0-12-5.35-12-12v-.38c0-6.648 5.352-12 12-12H316.8a29.17 29.17 0 0 1 26.466-16.98zm-120 88a29.17 29.17 0 0 1 26.463 16.98h149.264c6.648 0 12 5.352 12 12v.38c0 6.65-5.352 12-12 12H249.73a29.17 29.17 0 0 1-26.464 16.98 29.17 29.17 0 0 1-26.463-16.98h-83.797c-6.648 0-12-5.35-12-12v-.38c0-6.648 5.352-12 12-12H196.8a29.17 29.17 0 0 1 26.466-16.98z" fill="#ccc"/></svg>